<svg width="76" height="81" viewBox="0 0 76 81" fill="none" xmlns="http://www.w3.org/2000/svg">
<rect width="75.9716" height="80.3255" fill="#ECECEC"/>
<path d="M67.6954 39.9784C67.6954 57.4415 54.2753 71.3772 37.9863 71.3772C21.6973 71.3772 8.2771 57.4415 8.2771 39.9784C8.2771 22.5153 21.6973 8.57959 37.9863 8.57959C54.2753 8.57959 67.6954 22.5153 67.6954 39.9784Z" stroke="#202020" stroke-width="5"/>
<rect width="5.04" height="103.687" transform="matrix(-0.688809 -0.724943 0.688809 -0.724944 3.86133 79.231)" fill="#202020"/>
<rect width="5.03953" height="103.687" transform="matrix(0.688809 -0.724943 0.688809 0.724943 0 4.82031)" fill="#202020"/>
<path d="M37.0001 46L16.2153 14.25L37.0001 8.5L57.7847 14.2499L37.0001 46Z" fill="#202020"/>
<path d="M37.899 37.9521L58.5 62.5L37.899 71L17.5 62.5L37.899 37.9521Z" fill="#202020"/>
</svg>
